<svg id="Capa_1" data-name="Capa 1" xmlns="http://www.w3.org/2000/svg" xmlns:xlink="http://www.w3.org/1999/xlink" viewBox="0 0 372.38 368.93"><defs><style>.cls-1{fill:none;}.cls-2{clip-path:url(#clip-path);}.cls-3{fill:#161615;}.cls-4{fill:#662b8d;}.cls-5{fill:#3b0455;}.cls-6{fill:#e59d89;}.cls-7{fill:#ba5252;}.cls-8{fill:#9e4c0b;}.cls-9{fill:#660623;}.cls-10{fill:#fff;}.cls-11{fill:#cbdce6;}.cls-12{fill:#eb2b61;}</style><clipPath id="clip-path" transform="translate(-25.46 -62.25)"><rect class="cls-1" x="-495" y="-287" width="1080" height="1080"/></clipPath></defs><title>smile</title><g class="cls-2"><path class="cls-3" d="M381.83,273.75c-36.68-20.9-13.72-66.84-45.16-83.44s-10.29-59.95-45.93-93.49c-18-16.9-30.27-20.58-38.06-20.07C216.8,48.57,148.9,66.12,127,90a117.75,117.75,0,0,0-27.49,50.08,77.7,77.7,0,0,0-11.34,27.34c-9.24,42.34-5.88,32.33-32.06,53.89s6.93,45.94-13.86,67.5c-10.62,11-15.61,20-16.62,30.4-1.78,18.27,10.86,34.57,28.52,39.59C66.2,362.23,76,373.63,83.21,389.16c14.23,30.79,65.11,17.42,65.11,17.42s11.07,5,40.51-15.79c2.54-1.79,4.53-5.56,6-10.94l26.36,10.81c71.67,26,30.46,6.08,30.46,6.08C315,421,348,366,348,366c37.73-7.33,70.52-71.34,33.83-92.25M198.06,359.44c3.69-46.42-5.23-133.08-13.25-196.92a144.57,144.57,0,0,0,47.25-19.34Z" transform="translate(-25.46 -62.25)"/><path class="cls-4" d="M267.13,400.82c.25,1.79.51,3.57.77,5.36C268,431,268,431,250,431.08q-42.11.19-84.2,0c-20.1-.07-20.17-.2-20-19.89,0-3.58-.56-7.22.73-10.73,4.25-3.9,9.61-3.6,14.76-3.63q45.61-.21,91.23,0c5.16,0,10.52-.19,14.63,3.95" transform="translate(-25.46 -62.25)"/><path class="cls-4" d="M145,384c-8.93-.32-15.31-3.19-15.27-13.75,0-11.9,8.49-12.52,17-13.31,3.06-3.05,7-2.85,10.9-3.07,33-.41,65.34,2.44,98.34,3.13,3,0,5,0,9.29-.1,8.81.25,16.18,3,16.66,13.1.44,9.3-5.55,13.43-14.33,14.06-4.33,3.62-9.58,3.6-14.76,3.61q-46.59.16-93.19,0c-5.11,0-10.48.39-14.65-3.65" transform="translate(-25.46 -62.25)"/><path class="cls-5" d="M145,384l122.6.06q-.25,8.38-.49,16.76L147,401.09a3.14,3.14,0,0,0-1.49-.49L145,384" transform="translate(-25.46 -62.25)"/><path class="cls-6" d="M315.36,224a25,25,0,0,0-20.64-24.61c-1.07-3.8-.56-8.31-.55-12.81,0-10.4.12-20.79-.09-31.18-.4-19.07-7.4-35.74-18.89-50.72-1.95-2.55-3.57-5.76-7.46-2.6-2.86,2.07-3.28,5.36-4.24,8.39-10.34,32.42-72.91,50.4-107.27,50.54-20.44.09-2.89,0-23.33.05-5.17,0-10.52-.49-14.9,3.27-.12,10.42-.29,20.83-.34,31.25a24.79,24.79,0,0,1-.19,3.55,25,25,0,0,0,.52,49.78c-.06,24.63-.27,15.09.18,28.28,1.49,13.82,8.63,24.58,18.29,34,6.57,6.43,13,13,19.41,19.58l.91.73q-.18,12.72-.37,25.45H258q-.17-13.79-.35-27.57l1.11-1.06c4.14-4.38,8.27-8.77,12.65-12.91,11.26-10.65,21-22.16,22.42-38.51.17-9.19.41-18.39.47-27.58,0-.22,0-.44,0-.65A25,25,0,0,0,315.36,224" transform="translate(-25.46 -62.25)"/><path class="cls-3" d="M251.37,90.18S229,122.59,325.38,186A183.63,183.63,0,0,1,306,146c-18-55-54.63-55.82-54.63-55.82" transform="translate(-25.46 -62.25)"/><path class="cls-3" d="M156,357c-3.21,0-6-.05-9.24-.06-10.66-12.29-22.86-23.29-26.86-40.35-3.08-13.19-1.18-26.27-1.75-39.39,6.65,21.76,25.12,34.58,38.67,51.12C156,357,157,328,156,357" transform="translate(-25.46 -62.25)"/><path class="cls-7" d="M201.8,255a4.93,4.93,0,1,1-4.92-4.55A4.75,4.75,0,0,1,201.8,255" transform="translate(-25.46 -62.25)"/><path class="cls-7" d="M219.49,255a4.93,4.93,0,1,1-4.92-4.55,4.75,4.75,0,0,1,4.92,4.55" transform="translate(-25.46 -62.25)"/></g><g class="cls-2"><path class="cls-3" d="M256,217.85c.18,4.66-.45,11.37-8.49,11.22s-8.13-7-8.11-13.26.11-13,8.45-12.81,8.12,7.07,8.15,14.85" transform="translate(-25.46 -62.25)"/><path class="cls-3" d="M157.43,215.62c.4-5.12-1.07-12.6,7.93-12.62s7.82,7.36,7.95,13.25c.12,5.7.35,12.4-7.3,12.81-8.58.44-8.59-6.52-8.58-13.44" transform="translate(-25.46 -62.25)"/><path class="cls-3" d="M248.29,174.05c3.57,0,7.15,0,10.73,0,4.05,0,7.13,1.19,7.25,5.87.12,4.4-2.2,6.54-6.59,6.53-8,0-15.9,0-23.85,0-4.92,0-7.65-2.63-7.4-7.23s4.09-5.27,7.93-5.26,7.95,0,11.93,0Z" transform="translate(-25.46 -62.25)"/><path class="cls-3" d="M166,174.05c3.58,0,7.16,0,10.73,0,4.05,0,7.13,1.19,7.25,5.87.12,4.4-2.2,6.54-6.58,6.53-8,0-15.9,0-23.85,0-4.92,0-7.66-2.63-7.4-7.23s4.08-5.27,7.92-5.26,8,0,11.93,0Z" transform="translate(-25.46 -62.25)"/></g><g class="cls-2"><path class="cls-8" d="M245.29,285.65c-5.66,12-15.17,17.69-29.36,18.92-11.28,1-24.06-1.69-34.46-5.42-11.28-4-14.29-16.37-23.44-22.94.82,0,1.7-.07,2.61-.13,12.32-.88,23.86-5.69,36.42-6a.13.13,0,0,0,.13-.16c9.69.87,19.59,3.2,28.94,3.64,8.29.38,19.09.83,28.51-.82-4.42,3.09-7.18,8.32-9.35,12.9" transform="translate(-25.46 -62.25)"/><path class="cls-9" d="M245.29,285.65c-5.66,12-15.17,17.69-29.36,18.92-11.28,1-24.06-1.69-34.46-5.42-11.28-4-14.29-16.37-23.44-22.94.82,0,1.7-.07,2.61-.13,12.32-.88,23.86-5.69,36.42-6a.13.13,0,0,0,.13-.16c9.69.87,19.59,3.2,28.94,3.64,8.29.38,19.09.83,28.51-.82-4.42,3.09-7.18,8.32-9.35,12.9" transform="translate(-25.46 -62.25)"/><path class="cls-10" d="M242.24,280.34a59.41,59.41,0,0,0,4.92-6.7,181,181,0,0,1-21-.07c-9.35-.44-19.25-2.77-28.94-3.64a.13.13,0,0,1-.14.16c-9.52.23-18.47,3.05-27.61,4.78,2.46,4.84,5.16,8.58,12.53,10.09,7,1.42,14,3,21.21,3.42a104.28,104.28,0,0,0,25.62-1.82c4.9-1.39,9.62-3.25,13.44-6.22" transform="translate(-25.46 -62.25)"/><path class="cls-11" d="M235.11,279.51a16.58,16.58,0,0,1-4.85,6.62,37,37,0,0,0,12-5.79,59.41,59.41,0,0,0,4.92-6.7,181,181,0,0,1-21-.07c-9.35-.44-19.25-2.77-28.94-3.64a.13.13,0,0,1-.14.16c-9.52.23-18.47,3.05-27.61,4.78.21.43.44.85.67,1.26,9.75-.77,19.23-3,29.14-2.53,11.61.54,23,2.33,34.53,3.91a1.49,1.49,0,0,1,1.33,2" transform="translate(-25.46 -62.25)"/><path class="cls-12" d="M212,295.26a52.45,52.45,0,0,0-28.65,4.52c10,3.38,22,5.7,32.59,4.79a43.28,43.28,0,0,0,13.53-3.19A43.38,43.38,0,0,0,212,295.26" transform="translate(-25.46 -62.25)"/><path class="cls-9" d="M253.08,269.13c16.69,0-5,42.5-45.23,43.29-39.46.78-64.38-43.25-47.69-43.29,92.92-.18,0-.18,92.92,0" transform="translate(-25.46 -62.25)"/><path class="cls-12" d="M251.43,291.09c-14.8,19.05-41.11,27.43-62.49,18.28-2.93-9-1.62-18.4,7.69-20.36,16.89-3.57,37.79-3.4,54.8,2.08" transform="translate(-25.46 -62.25)"/><rect class="cls-11" x="143.75" y="206.75" width="75.65" height="6.86"/><path class="cls-10" d="M239,282.71H175a5.74,5.74,0,0,1-5.75-5.75v-1.1h75.64v1a5.85,5.85,0,0,1-5.85,5.86" transform="translate(-25.46 -62.25)"/></g></svg>