<?xml version="1.0" encoding="utf-8"?>
                <!-- Generator: Adobe Illustrator 23.0.1, SVG Export Plug-In . SVG Version: 6.00 Build 0)  -->
                <svg
                  version="1.1"
                  id="Capa_1"
                  xmlns="http://www.w3.org/2000/svg"
                  xmlns:xlink="http://www.w3.org/1999/xlink"
                  x="0"
                  y="0"
                  viewBox="0 0 380 372.18"
                  xml:space="preserve"
                >
                  <style>
                    .st3,
                    .st6,
                    .st7,
                    .st8 {
                      display: inline;
                      clip-path: url(#SVGID_2_);
                      fill: #f4b797;
                    }
                    .st6,
                    .st7,
                    .st8 {
                      fill: #161615;
                    }
                    .st7,
                    .st8 {
                      fill: #331a06;
                    }
                    .st8 {
                      fill: #e85f59;
                    }
                    .st13,
                    .st14,
                    .st17 {
                      clip-path: url(#SVGID_4_);
                      fill: #161615;
                    }
                    .st14,
                    .st17 {
                      fill: #662b8d;
                    }
                    .st17 {
                      fill: #ba5252;
                    }
                    .st18 {
                      clip-path: url(#SVGID_6_);
                      fill: #161615;
                    }
                    .st20,
                    .st21,
                    .st22,
                    .st23 {
                      clip-path: url(#SVGID_8_);
                      fill: #660623;
                    }
                    .st21,
                    .st22,
                    .st23 {
                      fill: #fff;
                    }
                    .st22,
                    .st23 {
                      fill: #cbdce6;
                    }
                    .st23 {
                      fill: #eb2b61;
                    }
                  </style>
                  <defs>
                    <path id="SVGID_3_" d="M-516-346H564V734H-516z" />
                  </defs>
                  <clipPath id="SVGID_4_">
                    <use xlink:href="#SVGID_3_" overflow="visible" />
                  </clipPath>
                  <path
                    class="st13"
                    d="M360.83 214.75c-36.68-20.91-13.72-66.84-45.17-83.44-31.44-16.6-10.29-59.95-45.92-93.49-17.96-16.9-30.27-20.58-38.07-20.07C195.8-10.43 127.9 7.12 106 31 90.02 48.42 82.26 66.69 78.51 81.08c-4.71 6.96-8.85 15.89-11.34 27.34-9.24 42.35-5.88 32.34-32.06 53.9-26.18 21.56 6.93 45.94-13.86 67.5-10.62 11.01-15.61 20.02-16.62 30.39-1.78 18.27 10.86 34.57 28.52 39.59 12.06 3.43 21.9 14.83 29.07 30.36 14.23 30.8 65.11 17.42 65.11 17.42s11.07 5 40.51-15.79c2.54-1.79 4.53-5.56 6.04-10.95l26.37 10.82c71.66 25.97 30.46 6.07 30.46 6.07C294 362 327 307 327 307c37.73-7.33 70.52-71.34 33.83-92.25m-183.77 85.69c3.69-46.42-5.23-133.08-13.26-196.92 15.38-3.11 32.73-10.03 47.25-19.33l-33.99 216.25z"
                  />
                  <path
                    class="st14"
                    d="M246.13 341.82c.26 1.79.51 3.57.77 5.35.1 24.83.1 24.83-17.88 24.91-28.07.13-56.13.13-84.2.04-20.1-.07-20.16-.19-20.04-19.88.02-3.58-.56-7.22.73-10.73 4.25-3.91 9.61-3.61 14.76-3.63 30.41-.14 60.82-.15 91.23 0 5.16.02 10.52-.2 14.63 3.94M124.02 325c-8.93-.31-15.31-3.19-15.27-13.74.04-11.91 8.49-12.53 17.01-13.32 3.06-3.05 7.04-2.84 10.9-3.06 32.99-.41 65.34 2.43 98.34 3.13 3 0 5 0 9.29-.1 8.81.26 16.18 3.04 16.66 13.1.44 9.3-5.55 13.44-14.33 14.06-4.33 3.61-9.58 3.6-14.75 3.61-31.07.1-62.13.13-93.2-.02-5.11-.03-10.48.38-14.65-3.66"
                  />
                  <path
                    d="M124.02 325l122.6.06c-.16 5.59-.33 11.17-.49 16.76l-120.13.27c-.46-.28-.96-.45-1.49-.48-.17-5.54-.33-11.08-.49-16.61"
                    clip-path="url(#SVGID_4_)"
                    fill="#3b0455"
                  />
                  <path
                    d="M294.36 165c0-12.32-8.91-22.54-20.63-24.61-1.07-3.79-.56-8.31-.55-12.81.03-10.39.12-20.79-.1-31.18-.4-19.07-7.39-35.74-18.89-50.72-1.95-2.55-3.57-5.76-7.46-2.59-2.86 2.06-3.28 5.35-4.24 8.38-10.33 32.43-72.91 50.4-107.26 50.55-20.45.09-2.89-.03-23.34.05-5.17.02-10.52-.49-14.9 3.27-.12 10.41-.28 20.83-.33 31.24-.01 1.29-.03 2.47-.19 3.55C83.85 141.4 74 152.05 74 165c0 13.13 10.12 23.88 22.98 24.91-.07 24.62-.28 15.09.17 28.28 1.49 13.81 8.63 24.58 18.29 34.02 6.57 6.43 13.03 12.98 19.42 19.58.31.25.61.48.91.73-.13 8.48-.25 16.96-.38 25.44 33.86 0 67.72-.01 101.58-.01-.12-9.19-.23-18.38-.35-27.57.37-.36.74-.69 1.11-1.05 4.14-4.38 8.27-8.77 12.64-12.91 11.26-10.65 20.99-22.16 22.42-38.52.17-9.19.41-18.38.47-27.58 0-.23 0-.44.01-.65 11.95-1.86 21.09-12.2 21.09-24.67"
                    clip-path="url(#SVGID_4_)"
                    fill="#e59d89"
                  />
                  <path
                    class="st13"
                    d="M230.37 31.18s-22.41 32.4 74.01 95.84c0 0-12.26-18.24-19.38-40.02-18-55-54.63-55.82-54.63-55.82M135 298c-3.21-.01-6.03-.05-9.24-.06-10.66-12.29-22.86-23.29-26.86-40.35-3.08-13.19-1.18-26.27-1.75-39.39 6.65 21.76 25.11 34.59 38.67 51.12C135 298 136 269 135 298"
                  />
                  <path
                    class="st17"
                    d="M180.8 195.95c0 2.52-2.2 4.55-4.92 4.55-2.71 0-4.91-2.04-4.91-4.55s2.2-4.55 4.91-4.55c2.72 0 4.92 2.04 4.92 4.55M198.49 195.95c0 2.52-2.2 4.55-4.92 4.55-2.71 0-4.91-2.04-4.91-4.55s2.2-4.55 4.91-4.55c2.72 0 4.92 2.04 4.92 4.55"
                  />
                  <g>
                    <defs>
                      <path id="SVGID_5_" d="M-516-346H564V734H-516z" />
                    </defs>
                    <clipPath id="SVGID_6_">
                      <use xlink:href="#SVGID_5_" overflow="visible" />
                    </clipPath>
                    <path
                      class="st18"
                      d="M234.95 158.85c.18 4.66-.45 11.38-8.49 11.23-8.04-.15-8.13-7.03-8.1-13.26.03-6.24.11-12.96 8.44-12.82 8.33.14 8.12 7.07 8.15 14.85M136.43 156.62c.4-5.12-1.07-12.61 7.93-12.62 8.95-.01 7.82 7.36 7.95 13.25.12 5.7.35 12.4-7.3 12.8-8.58.45-8.59-6.51-8.58-13.43M227.29 115.05c3.58 0 7.16.02 10.73-.01 4.05-.04 7.13 1.19 7.25 5.87.11 4.4-2.2 6.54-6.59 6.53-7.95-.01-15.9-.03-23.85.02-4.92.03-7.66-2.63-7.4-7.24.26-4.54 4.09-5.26 7.93-5.25 3.98.01 7.95 0 11.93 0v.08zM145 115.05c3.58 0 7.16.02 10.73-.01 4.05-.04 7.13 1.19 7.25 5.87.12 4.4-2.2 6.54-6.59 6.53-7.95-.01-15.9-.03-23.85.02-4.92.03-7.66-2.63-7.4-7.24.26-4.54 4.09-5.26 7.93-5.25 3.98.01 7.95 0 11.93 0v.08z"
                    />
                  </g>
                  <g>
                    <defs>
                      <path id="SVGID_7_" d="M-516-346H564V734H-516z" />
                    </defs>
                    <clipPath id="SVGID_8_">
                      <use xlink:href="#SVGID_7_" overflow="visible" />
                    </clipPath>
                    <path
                      d="M224.29 226.65c-5.66 11.96-15.17 17.69-29.36 18.91-11.28.98-24.06-1.69-34.45-5.42-11.28-4.04-14.29-16.37-23.44-22.94.83-.02 1.7-.07 2.61-.14 12.32-.88 23.86-5.68 36.42-5.98.1 0 .15-.08.14-.16 9.69.87 19.59 3.2 28.94 3.64 8.29.38 19.09.83 28.51-.81-4.44 3.09-7.2 8.32-9.37 12.9"
                      clip-path="url(#SVGID_8_)"
                      fill="#9e4c0b"
                    />
                    <path
                      class="st20"
                      d="M224.29 226.65c-5.66 11.96-15.17 17.69-29.36 18.91-11.28.98-24.06-1.69-34.45-5.42-11.28-4.04-14.29-16.37-23.44-22.94.83-.02 1.7-.07 2.61-.14 12.32-.88 23.86-5.68 36.42-5.98.1 0 .15-.08.14-.16 9.69.87 19.59 3.2 28.94 3.64 8.29.38 19.09.83 28.51-.81-4.44 3.09-7.2 8.32-9.37 12.9"
                    />
                    <path
                      class="st21"
                      d="M221.24 221.34c1.8-2.12 3.44-4.36 4.92-6.7-7.33.54-14.87.21-21.03-.07-9.35-.44-19.25-2.76-28.94-3.64.01.08-.03.16-.14.16-9.53.23-18.47 3.04-27.62 4.77 2.46 4.84 5.17 8.58 12.53 10.09 7.03 1.43 13.98 3.03 21.21 3.42 8.79.48 17.29-.2 25.62-1.82 4.91-1.38 9.63-3.24 13.45-6.21"
                    />
                    <path
                      class="st22"
                      d="M214.11 220.51c-1.03 2.65-2.73 4.81-4.85 6.62 4.38-1.34 8.55-3.12 11.98-5.79 1.8-2.12 3.44-4.36 4.92-6.7-7.33.53-14.87.21-21.03-.07-9.35-.43-19.25-2.76-28.94-3.64.01.08-.03.16-.14.16-9.53.23-18.47 3.04-27.62 4.77.21.44.44.85.67 1.26 9.75-.77 19.23-3 29.14-2.53 11.62.55 23.05 2.33 34.53 3.92 1.07.14 1.7 1.07 1.34 2"
                    />
                    <path
                      class="st23"
                      d="M190.99 236.26c-11.02-1.18-19.87.54-28.64 4.52 10.05 3.38 21.97 5.7 32.58 4.78 5.11-.44 9.59-1.49 13.53-3.18-5.25-3.09-10.96-5.41-17.47-6.12"
                    />
                    <path
                      class="st20"
                      d="M232.08 210.13c16.7.03-4.94 42.5-45.22 43.29-39.47.78-64.39-43.25-47.69-43.29 92.91-.18-.01-.18 92.91 0"
                    />
                    <path
                      class="st23"
                      d="M230.43 232.09c-14.8 19.05-41.11 27.43-62.49 18.28-2.93-8.99-1.62-18.4 7.69-20.37 16.89-3.56 37.79-3.39 54.8 2.09"
                    />
                    <path class="st22" d="M148.21 210h75.65v6.86h-75.65z" />
                    <path
                      class="st21"
                      d="M218 223.71h-64.04c-3.18 0-5.75-2.57-5.75-5.75v-1.1h75.65v1a5.866 5.866 0 01-5.86 5.85"
                    />
                  </g>
                </svg>